# AST/ASF file generated using VICON BodyLanguage
# -----------------------------------------------
:version 1.10
:name VICON
:units
  mass 1.0
  length 0.45
  angle deg
:documentation
   .ast/.asf automatically generated from VICON data using
   VICON BodyBuilder and BodyLanguage model FoxedUp or BRILLIANT.MOD
:root
   order TX TY TZ RX RY RZ
   axis XYZ
   position 0 0 0  
   orientation 0 0 0 
:bonedata
  begin
     id 1 
     name lhipjoint
     direction 0.596438 -0.722117 0.35044 
     length 2.43043 
     axis 0 0 0  XYZ
  end
  begin
     id 2 
     name lfemur
     direction 0.34202 -0.939693 0  
     length 7.0339  
     axis 0 0 20  XYZ
    dof rx ry rz
    limits (-160.0 20.0)
           (-70.0 70.0)
           (-60.0 70.0)
  end
  begin
     id 3 
     name ltibia
     direction 0.34202 -0.939693 0   
     length 7.56602   
     axis 0 0 20   XYZ
    dof rx
    limits (-10.0 170.0)
  end
  begin
     id 4 
     name lfoot
     direction 0.0985677 -0.270812 0.957572   
     length 1.85172   
     axis -90 7.62852e-016 20   XYZ
    dof rx rz
    limits (-45.0 90.0)
           (-70.0 20.0)
  end
  begin
     id 5 
     name ltoes
     direction 1.53534e-011 -4.21843e-011 1   
     length 0.929904   
     axis -90 7.62852e-016 20   XYZ
    dof rx
    limits (-90.0 20.0)
  end
  begin
     id 6 
     name rhipjoint
     direction -0.585088 -0.729594 0.354068   
     length 2.40552  
     axis 0 0 0  XYZ 
  end
  begin
     id 7 
     name rfemur
     direction -0.34202 -0.939693 0   
     length 7.12573   
     axis 0 0 -20   XYZ
    dof rx ry rz
    limits (-160.0 20.0)
           (-70.0 70.0)
           (-70.0 60.0)
  end
  begin
     id 8 
     name rtibia
     direction -0.34202 -0.939693 0   
     length 7.35777   
     axis 0 0 -20   XYZ
    dof rx
    limits (-10.0 170.0)
 end
 begin
     id 9 
     name rfoot
     direction -0.120907 -0.33219 0.935431   
     length 2.0994  
     axis -90 -7.62852e-016 -20   XYZ
    dof rx rz
    limits (-45.0 90.0)
           (-20.0 70.0)
  end
  begin
     id 10 
     name rtoes
     direction -1.53577e-011 -4.21787e-011 1   
     length 1.04244   
     axis -90 -7.62852e-016 -20   XYZ
    dof rx
    limits (-90.0 20.0)
  end
  begin
     id 11 
     name lowerback
     direction 0.00268363 0.993603 -0.112896   
     length 2.15839   
     axis 0 0 0   XYZ
    dof rx ry rz
    limits (-20.0 45.0)
           (-30.0 30.0)
           (-30.0 30.0)
  end
  begin
     id 12 
     name upperback
     direction 0.0272563 0.999411 -0.0208618   
     length 2.16443   
     axis 0 0 0   XYZ
    dof rx ry rz
    limits (-20.0 45.0)
           (-30.0 30.0)
           (-30.0 30.0)
  end
  begin
     id 13 
     name thorax
     direction 0.0254655 0.999174 0.0316806   
     length 2.19003   
     axis 0 0 0   XYZ
    dof rx ry rz
    limits (-20.0 45.0)
           (-30.0 30.0)
           (-30.0 30.0)
  end
  begin
     id 14 
     name lowerneck
     direction -0.0102178 0.988048 0.15381   
     length 1.61507   
     axis 0 0 0   XYZ
    dof rx ry rz
    limits (-20.0 45.0)
           (-30.0 30.0)
           (-30.0 30.0)
  end
  begin
     id 15 
     name upperneck
     direction -0.0061965 0.994088 -0.108398   
     length 1.64042   
     axis 0 0 0   XYZ
    dof rx ry rz
    limits (-20.0 45.0)
           (-30.0 30.0)
           (-30.0 30.0)
  end
  begin
     id 16
     name head
     direction -0.00151929 0.998591 -0.0530385  
     length 1.64343  
     axis 0 0 0   XYZ
    dof rx ry rz
    limits (-20.0 45.0)
           (-30.0 30.0)
           (-30.0 30.0)
  end
  begin
     id 17 
     name lclavicle
     direction 0.948974 0.284245 -0.136574  
     length 3.3483  
     axis 0 0 0   XYZ
    dof ry rz
    limits (-20.0 10.0)
           (0.0 20.0)
  end
  begin
     id 18 
     name lhumerus
     direction 1 -4.48961e-011 1.68576e-027   
     length 4.93485   
     axis -180 -30 -90   XYZ
    dof rx ry rz
    limits (-60.0 90.0)
           (-90.0 90.0)
           (-90.0 90.0)
  end
  begin
     id 19
     name lradius
     direction 1 -4.48965e-011 -2.46405e-027   
     length 3.41719   
     axis -180 -30 -90   XYZ
    dof rx
    limits (-10.0 170.0)
  end
  begin
     id 20
     name lwrist
     direction 1 -4.48968e-011 -8.00486e-028   
     length 1.7086   
     axis 3.27501e-015 90 90   XYZ
    dof ry
    limits (-180.0 0.0)
 end
  begin
     id 21 
     name lhand
     direction 1 -4.48977e-011 -1.60161e-027   
     length 0.6241   
     axis 1.02148e-015 90 90   XYZ
    dof rx rz
    limits (-90.0 90.0)
           (-45.0 45.0)
  end
  begin
     id 22 
     name lfingers
     direction 1 -4.49049e-011 -3.21275e-027   
     length 0.503166   
     axis 2.04295e-015 90 90   XYZ
    dof rx
    limits (0.0 90.0)
  end
  begin
     id 23
     name lthumb
     direction 0.707107 -6.34975e-011 0.707107   
     length 0.722448   
     axis -90 45 -1.62303e-014   XYZ
    dof rx rz
    limits (-45.0 45.0)
           (-45.0 45.0)
  end
  begin
     id 24 
     name rclavicle
     direction -0.904485 0.355099 -0.236246   
     length 3.18329  
     axis 0 0 0   XYZ 
    dof ry rz
    limits (-10.0 20.0)
           (-20.0 0.0)
  end
  begin
     id 25 
     name rhumerus
     direction -1 -4.48953e-011 1.32816e-027  
     length 5.22034   
     axis -180 30 90   XYZ
    dof rx ry rz
    limits (-90.0 60.0)
           (-90.0 90.0)
           (-90.0 90.0)
  end
  begin
     id 26 
     name rradius
     direction -1 -4.48965e-011 -3.93727e-027   
     length 3.41809   
     axis -180 30 90   XYZ
    dof rx
    limits (-10.0 170.0)
  end
  begin
     id 27 
     name rwrist
     direction -1 -4.48962e-011 -8.003e-028   
     length 1.70904   
     axis 3.27501e-015 -90 -90   XYZ
    dof ry
    limits (-180.0 0.0)
  end
  begin
     id 28
     name rhand
     direction -1 -4.49008e-011 -1.60365e-027   
     length 0.77534   
     axis 1.02148e-015 -90 -90   XYZ
    dof rx rz
    limits (-90.0 90.0)
           (-45.0 45.0)
  end
  begin
     id 29
     name rfingers
     direction -1 -4.49001e-011 -3.2064e-027   
     length 0.625099   
     axis 2.04295e-015 -90 -90   XYZ
    dof rx
    limits (0.0 90.0)
  end
  begin
     id 30
     name rthumb
     direction -0.707107 -6.34989e-011 0.707107   
     length 0.897521   
     axis -90 -45 1.62303e-014   XYZ
    dof rx rz
    limits (-45.0 45.0)
           (-45.0 45.0)
  end
:hierarchy
  begin
    root lhipjoint rhipjoint lowerback
    lhipjoint lfemur
    lfemur ltibia
    ltibia lfoot
    lfoot ltoes
    rhipjoint rfemur
    rfemur rtibia
    rtibia rfoot
    rfoot rtoes
    lowerback upperback
    upperback thorax
    thorax lowerneck lclavicle rclavicle
    lowerneck upperneck
    upperneck head
    lclavicle lhumerus
    lhumerus lradius
    lradius lwrist
    lwrist lhand lthumb
    lhand lfingers
    rclavicle rhumerus
    rhumerus rradius
    rradius rwrist
    rwrist rhand rthumb
    rhand rfingers
  end

#!OML:ASF \\sashay\E\Suitcase\Project 1\Capture day 1\Session 1\Male1.ASF
:FULLY-SPECIFIED
:DEGREES
135
root 0.176026 17.4497 -33.9635 5.0606 4.86335 -2.99923
lowerback 4.08047 -2.2708 1.16409
upperback -0.880906 -2.9014 2.14987
thorax -3.13968 -1.44656 1.7556
lowerneck -9.95263 -1.43487 1.60402
upperneck 10.4665 -1.93667 -1.94348
head 4.73447 -1.01036 -0.995974
rclavicle -1.27968e-015 8.94531e-015
rhumerus -41.0173 -32.9963 -59.4402
rradius 19.0617
rwrist 4.54893
rhand -15.9033 18.3654
rfingers 7.12502
rthumb 10.2934 -11.3627
lclavicle -1.27968e-015 8.94531e-015
lhumerus -36.8796 13.383 75.8445
lradius 26.9086
lwrist -10.0425
lhand -2.87419 41.8013
lfingers 7.12502
lthumb 22.8347 70.4696
rfemur -12.4669 -0.152516 28.306
rtibia 26.2578
rfoot -20.0086 -8.21926
rtoes 15.5462
lfemur -17.0006 -6.62854 -18.4275
ltibia 32.9581
lfoot -22.1019 2.13921
ltoes 7.98816
136
root 0.178318 17.4466 -33.9653 5.10388 4.746 -3.13628
lowerback 4.0579 -2.30865 1.38208
upperback -0.856382 -2.9396 2.21293
thorax -3.10875 -1.46903 1.69964
lowerneck -10.4356 -1.34478 1.72159
upperneck 10.6836 -1.7943 -2.2948
head 4.88026 -0.960204 -1.12079
rclavicle -2.85256e-014 -4.37326e-015
rhumerus -40.704 -32.702 -59.762
rradius 19.2371
rwrist 4.52248
rhand -15.5961 18.695
rfingers 7.12502
rthumb 10.5898 -11.0182
lclavicle -2.85256e-014 -4.37326e-015
lhumerus -37.0281 12.98 76.0972
lradius 27.514
lwrist -9.17177
lhand -3.1056 41.6843
lfingers 7.12502
lthumb 22.6126 70.3798
rfemur -12.4903 0.00475374 28.4588
rtibia 26.2117
rfoot -20.0684 -8.24568
rtoes 16.275
lfemur -17.0825 -6.48574 -18.2828
ltibia 32.9914
lfoot -22.0763 1.97743
ltoes 8.65193
137
root 0.181524 17.4492 -33.9634 5.13862 4.7434 -3.22014
lowerback 3.94103 -2.28637 1.49962
upperback -0.828576 -2.90616 2.27179
thorax -3.0178 -1.45412 1.68605
lowerneck -10.4324 -1.36113 1.64166
upperneck 10.4313 -1.81157 -2.25341
head 4.80253 -0.969262 -1.09392
rclavicle -1.93567e-014 -2.5842e-015
rhumerus -40.4985 -32.395 -60.0168
rradius 19.4162
rwrist 4.06266
rhand -15.8193 18.0308
rfingers 7.12502
rthumb 10.3745 -11.6933
lclavicle -1.93567e-014 -2.5842e-015
lhumerus -36.9617 12.7407 76.3533
lradius 27.76
lwrist -8.65398
lhand -3.4357 41.6092
lfingers 7.12502
lthumb 22.2958 70.3429
rfemur -12.5358 0.0366159 28.524
rtibia 26.1904
rfoot -20.0353 -8.20531
rtoes 16.3757
lfemur -17.1147 -6.36576 -18.1911
ltibia 33.008
lfoot -22.2114 2.01856
ltoes 8.17846
138
root 0.186509 17.4468 -33.9571 5.11381 4.64306 -3.33557
lowerback 3.93694 -2.3192 1.71042
upperback -0.894758 -2.93698 2.28884
thorax -3.0932 -1.47303 1.59009
lowerneck -10.0767 -1.29717 1.67669
upperneck 10.0295 -1.7243 -2.30657
head 4.6203 -0.927019 -1.10312
rclavicle -2.25621e-014 1.88845e-014
rhumerus -40.5596 -32.2061 -60.0547
rradius 19.4709
rwrist 4.09279
rhand -15.5468 18.3085
rfingers 7.12502
rthumb 10.6373 -11.4023
lclavicle -2.25621e-014 1.88845e-014
lhumerus -37.2673 12.5364 76.3923
lradius 28.1249
lwrist -8.44953
lhand -3.62139 41.2637
lfingers 7.12502
lthumb 22.1175 70.0187
rfemur -12.4759 0.069641 28.6476
rtibia 26.1593
rfoot -20.0905 -8.29281
rtoes 16.6626
lfemur -17.0898 -6.31076 -18.0837
ltibia 33.0438
lfoot -22.1501 1.85759
ltoes 8.94855
139
root 0.194568 17.4476 -33.9521 5.11008 4.5001 -3.26002
lowerback 3.89777 -2.33568 1.79529
upperback -0.865305 -2.95833 2.23267
thorax -3.04776 -1.48562 1.4836
lowerneck -10.3331 -1.15216 1.92589
upperneck 10.1731 -1.53024 -2.628
head 4.70656 -0.843713 -1.23344
rclavicle 1.82136e-014 -3.43897e-014
rhumerus -40.4819 -32.149 -60.2314
rradius 19.65
rwrist 4.17051
rhand -15.3544 18.1782
rfingers 7.12502
rthumb 10.8229 -11.5229
lclavicle 1.82136e-014 -3.43897e-014
lhumerus -37.2502 12.2734 76.5417
lradius 28.5131
lwrist -7.83455
lhand -3.12303 41.5058
lfingers 7.12502
lthumb 22.5959 70.2033
rfemur -12.4085 0.173954 28.5174
rtibia 26.0819
rfoot -19.9046 -8.2189
rtoes 16.1185
lfemur -17.0361 -6.25558 -18.2188
ltibia 33.0415
lfoot -22.2104 1.89037
ltoes 8.84013
